# xmcd
# 
# Track frame offsets:
#     150
#     11416
#     25230
#     40906
#     54566
#     67668
#     81162
#     98589
#     112407
#     131951
#     145912
#     159137
#     173847
#     188213
#     201447
# 
# Disc length: 2856
# 
# Revision: 1
# Processed by: cddbd v1.5.2PL0 Copyright (c) Steve Scherf et al.
# Submitted via: fre:ac v1.0.17
# 
DISCID=ca0b260f
DTITLE=John Lee Hooker - The Journey Disc 3
DYEAR=0
DGENRE=Blues
TTITLE0=Please Don't Go
TTITLE1=I Don't Want Your Money
TTITLE2=Hey Baby
TTITLE3=Bluebird
TTITLE4=Walkin' The Boogie
TTITLE5=Love Blues
TTITLE6=Lonely Boy Boogie
TTITLE7=Apologize
TTITLE8=The Journey
TTITLE9=Worried Life Blues
TTITLE10=Down At The Landing
TTITLE11=You Have Two Hearts
TTITLE12=Blues For Big Town
TTITLE13=Women And Money
TTITLE14=Rock House Boogie
EXTD=
EXTT0=
EXTT1=
EXTT2=
EXTT3=
EXTT4=
EXTT5=
EXTT6=
EXTT7=
EXTT8=
EXTT9=
EXTT10=
EXTT11=
EXTT12=
EXTT13=
EXTT14=
PLAYORDER=
